<svg width="615" height="114" viewBox="0 0 615 114" fill="none" xmlns="http://www.w3.org/2000/svg">
<path d="M208.45 60.32L137.7 109.47C134.49 111.7 130.1 109.4 130.1 105.49V48.48C130.1 46.86 131.84 45.85 133.24 46.65L145.5 53.66C146.15 54.03 146.54 54.71 146.54 55.45V81.24C146.54 82.11 147.52 82.62 148.24 82.12L181.71 58.86C182.87 58.06 182.8 56.33 181.59 55.63L130.64 25.64C128.68 24.49 126.16 25.36 125.33 27.49L94.03 108.39C92.95 111.17 89.63 112.33 87.05 110.82L2.37998 60.99C-0.660016 59.2 -0.820016 54.86 2.07998 52.84L72.82 3.70004C76.03 1.47004 80.42 3.77004 80.42 7.68004V64.69C80.42 66.31 78.69 67.32 77.29 66.52L65.02 59.51C64.38 59.14 63.98 58.46 63.98 57.72V31.93C63.98 31.06 63 30.55 62.29 31.05L28.81 54.3C27.66 55.1 27.73 56.83 28.94 57.54L79.89 87.53C81.85 88.68 84.38 87.8 85.2 85.68L116.5 4.77004C117.58 1.99004 120.89 0.830036 123.47 2.34004L208.14 52.17C211.18 53.96 211.35 58.3 208.45 60.32Z" fill="#212121"/>
<path d="M270.65 13.32C270.65 11.92 270.37 10.73 269.8 9.74C269.23 8.76 268.36 8.26 267.18 8.26C265.87 8.26 264.91 8.69 264.29 9.54C263.68 10.39 263.37 11.34 263.37 12.39C263.37 13.92 263.86 15.14 264.85 16.03C265.83 16.93 267.07 17.7 268.56 18.36C270.05 19.02 271.64 19.68 273.35 20.36C275.06 21.04 276.65 21.92 278.14 23.02C279.63 24.11 280.86 25.55 281.85 27.32C282.83 29.09 283.33 31.4 283.33 34.24C283.33 39.23 281.91 42.85 279.07 45.1C276.23 47.35 272.11 48.48 266.73 48.48C264.19 48.48 261.95 48.27 260 47.86C258.05 47.44 256.41 46.72 255.08 45.7C253.75 44.67 252.73 43.33 252.03 41.66C251.33 40 250.98 37.94 250.98 35.49V33.85H262.79V34.96C262.79 36.97 263.16 38.38 263.91 39.19C264.65 40 265.62 40.4 266.8 40.4C268.07 40.4 269.04 39.96 269.72 39.09C270.4 38.22 270.74 37.14 270.74 35.87C270.74 34.34 270.27 33.13 269.33 32.23C268.39 31.33 267.21 30.57 265.79 29.93C264.37 29.3 262.83 28.65 261.16 27.99C259.5 27.33 257.96 26.48 256.53 25.43C255.11 24.38 253.93 23 252.99 21.3C252.05 19.59 251.58 17.36 251.58 14.61C251.58 9.84 252.85 6.21 255.39 3.72C257.9 1.25 261.75 0 266.91 0C272.07 0 276.11 1.15 278.49 3.45C280.87 5.75 282.07 9.41 282.07 14.44H270.65V13.33V13.32Z" fill="#212121"/>
<path d="M304.64 0.920044L309.56 28.68H309.69L314.61 0.920044H332.06V47.77H320.64V12.86H320.51L314.01 47.77H305.22L298.72 12.86H298.59V47.77H287.17V0.920044H304.62H304.64Z" fill="#212121"/>
<path d="M360.42 0.920044L371.84 47.77H358.85L357.6 39.57H347.89L346.64 47.77H333.84L345.06 0.920044H360.41H360.42ZM352.67 10.5L349.32 30.38H356.14L352.79 10.5H352.66H352.67Z" fill="#212121"/>
<path d="M392.96 0.920044C395.28 0.920044 397.26 1.23004 398.9 1.84004C400.54 2.45004 401.87 3.32004 402.9 4.43004C403.93 5.54004 404.67 6.87004 405.13 8.40004C405.59 9.93004 405.82 11.59 405.82 13.39C405.82 16.54 405.19 19.08 403.92 21C402.65 22.93 400.62 24.11 397.82 24.54V24.67C400.75 24.93 402.76 25.96 403.86 27.75C404.95 29.54 405.5 32.02 405.5 35.17V41.08C405.5 41.74 405.52 42.36 405.57 42.95C405.61 43.54 405.68 44.08 405.77 44.56C405.86 45.04 405.97 45.41 406.1 45.67C406.27 45.93 406.45 46.19 406.62 46.42C406.79 46.66 407.08 46.89 407.47 47.11V47.77H394.48C394.17 47.16 393.94 46.44 393.79 45.61C393.64 44.78 393.53 43.95 393.46 43.12C393.39 42.29 393.35 41.49 393.33 40.72C393.31 39.95 393.3 39.33 393.3 38.85V35.7C393.3 34.39 393.23 33.3 393.1 32.42C392.97 31.55 392.74 30.86 392.41 30.35C392.08 29.85 391.67 29.5 391.16 29.3C390.65 29.1 390.03 29 389.29 29H386.07V47.77H373.87V0.920044H392.96ZM388.5 20.73C390.25 20.73 391.54 20.22 392.37 19.19C393.2 18.16 393.62 16.82 393.62 15.15C393.62 13.18 393.21 11.78 392.41 10.95C391.6 10.12 390.28 9.70004 388.44 9.70004H386.08V20.72H388.51L388.5 20.73Z" fill="#212121"/>
<path d="M407.47 11.29V0.920044H437.92V11.29H428.73V47.77H416.52V11.29H407.46H407.47Z" fill="#212121"/>
<path d="M275.44 65.79L286.86 112.64H273.87L272.62 104.44H262.91L261.66 112.64H248.86L260.08 65.79H275.43H275.44ZM267.7 75.37L264.35 95.25H271.17L267.82 75.37H267.69H267.7Z" fill="#212121"/>
<path d="M301.1 65.79V102.67H316.13V112.64H288.9V65.79H301.1Z" fill="#212121"/>
<path d="M350.77 87.18V112.64H342.5L342.24 108.51H342.11C341.72 109.52 341.16 110.35 340.44 111C339.72 111.66 338.91 112.15 338.01 112.48C337.11 112.81 336.15 113.04 335.12 113.17C334.09 113.3 333.05 113.37 332 113.37C328.89 113.37 326.44 112.86 324.65 111.83C322.86 110.8 321.5 109.26 320.58 107.2C319.66 105.14 319.08 102.61 318.84 99.59C318.6 96.57 318.48 93.12 318.48 89.22C318.48 85.32 318.71 81.8 319.17 78.79C319.63 75.77 320.5 73.24 321.79 71.18C323.08 69.12 324.86 67.56 327.14 66.49C329.41 65.42 332.34 64.88 335.93 64.88C338.07 64.88 340.05 65.16 341.87 65.73C343.68 66.3 345.25 67.22 346.56 68.49C347.87 69.76 348.9 71.39 349.64 73.38C350.38 75.37 350.76 77.79 350.76 80.63H338.95C338.95 78.14 338.73 76.32 338.29 75.18C337.85 73.82 336.91 73.15 335.47 73.15C334.46 73.15 333.67 73.39 333.07 73.87C332.48 74.35 332.04 75.21 331.76 76.43C331.47 77.65 331.29 79.31 331.2 81.38C331.11 83.46 331.07 86.07 331.07 89.22C331.07 92.37 331.11 94.98 331.2 97.06C331.29 99.14 331.47 100.79 331.76 102.01C332.04 103.23 332.46 104.09 333.01 104.57C333.56 105.05 334.29 105.29 335.21 105.29C335.87 105.29 336.45 105.16 336.95 104.9C337.45 104.64 337.88 104.15 338.23 103.42C338.58 102.7 338.85 101.69 339.05 100.4C339.25 99.11 339.35 97.46 339.35 95.45H335.02V87.18H350.77Z" fill="#212121"/>
<path d="M355.24 78.03C355.81 74.95 356.75 72.43 358.06 70.48C359.37 68.53 361.1 67.11 363.24 66.22C365.38 65.32 368.01 64.87 371.11 64.87C374.21 64.87 376.84 65.32 378.98 66.22C381.12 67.12 382.85 68.54 384.16 70.48C385.47 72.43 386.41 74.94 386.98 78.03C387.55 81.11 387.83 84.84 387.83 89.22C387.83 93.6 387.55 97.32 386.98 100.41C386.41 103.49 385.47 106.01 384.16 107.96C382.85 109.91 381.12 111.3 378.98 112.13C376.84 112.96 374.21 113.38 371.11 113.38C368.01 113.38 365.38 112.96 363.24 112.13C361.1 111.3 359.37 109.91 358.06 107.96C356.75 106.01 355.81 103.5 355.24 100.41C354.67 97.33 354.39 93.6 354.39 89.22C354.39 84.84 354.67 81.12 355.24 78.03ZM367.11 97.06C367.2 99.14 367.38 100.79 367.67 102.01C367.95 103.23 368.37 104.09 368.92 104.57C369.47 105.05 370.2 105.29 371.12 105.29C372.04 105.29 372.77 105.05 373.32 104.57C373.87 104.09 374.28 103.24 374.57 102.01C374.85 100.79 375.04 99.13 375.13 97.06C375.22 94.98 375.26 92.37 375.26 89.22C375.26 86.07 375.22 83.46 375.13 81.38C375.04 79.3 374.86 77.65 374.57 76.43C374.29 75.21 373.87 74.35 373.32 73.87C372.77 73.39 372.04 73.15 371.12 73.15C370.2 73.15 369.47 73.39 368.92 73.87C368.37 74.35 367.96 75.21 367.67 76.43C367.39 77.65 367.2 79.31 367.11 81.38C367.02 83.46 366.98 86.07 366.98 89.22C366.98 92.37 367.02 94.98 367.11 97.06Z" fill="#212121"/>
<path d="M411.34 65.79C413.66 65.79 415.64 66.1 417.28 66.71C418.92 67.32 420.25 68.19 421.28 69.3C422.31 70.41 423.05 71.74 423.51 73.27C423.97 74.8 424.2 76.46 424.2 78.26C424.2 81.41 423.57 83.95 422.3 85.87C421.03 87.8 419 88.98 416.2 89.41V89.54C419.13 89.8 421.14 90.83 422.24 92.62C423.33 94.41 423.88 96.89 423.88 100.04V105.95C423.88 106.61 423.9 107.23 423.95 107.82C423.99 108.41 424.06 108.95 424.15 109.43C424.24 109.91 424.35 110.28 424.48 110.54C424.65 110.8 424.83 111.06 425 111.29C425.17 111.53 425.46 111.76 425.85 111.98V112.64H412.86C412.55 112.03 412.32 111.31 412.17 110.48C412.02 109.65 411.91 108.82 411.84 107.99C411.77 107.16 411.73 106.36 411.71 105.59C411.69 104.82 411.68 104.2 411.68 103.72V100.57C411.68 99.26 411.61 98.17 411.48 97.29C411.35 96.42 411.12 95.73 410.79 95.22C410.46 94.72 410.05 94.37 409.54 94.17C409.03 93.97 408.41 93.87 407.67 93.87H404.45V112.64H392.25V65.79H411.34ZM406.88 85.61C408.63 85.61 409.92 85.1 410.75 84.07C411.58 83.04 412 81.7 412 80.03C412 78.06 411.59 76.66 410.79 75.83C409.98 75 408.66 74.58 406.82 74.58H404.46V85.6H406.89L406.88 85.61Z" fill="#212121"/>
<path d="M442.11 65.79V82.98H449.59V65.79H461.8V112.64H449.59V93.35H442.11V112.64H429.91V65.79H442.11Z" fill="#212121"/>
<path d="M463.9 65.79H477.09L481.68 82.13H481.81L486.4 65.79H499.79L487.85 94.2V112.64H475.64V94.2L463.89 65.79H463.9Z" fill="#212121"/>
<path d="M498.81 76.16V65.79H529.26V76.16H520.07V112.64H507.86V76.16H498.8H498.81Z" fill="#212121"/>
<path d="M544.21 65.79V82.98H551.69V65.79H563.9V112.64H551.69V93.35H544.21V112.64H532.01V65.79H544.21Z" fill="#212121"/>
<path d="M586.67 65.79L591.59 93.55H591.72L596.64 65.79H614.09V112.64H602.67V77.73H602.54L596.04 112.64H587.25L580.75 77.73H580.62V112.64H569.2V65.79H586.65H586.67Z" fill="#212121"/>
</svg>
