<svg width="211" height="111" viewBox="0 0 211 111" fill="none" xmlns="http://www.w3.org/2000/svg">
<path d="M208.45 59.32L137.7 108.47C134.49 110.7 130.1 108.4 130.1 104.49V47.48C130.1 45.86 131.84 44.85 133.24 45.65L145.5 52.66C146.15 53.03 146.54 53.71 146.54 54.45V80.24C146.54 81.11 147.52 81.62 148.24 81.12L181.71 57.86C182.87 57.06 182.8 55.33 181.59 54.63L130.64 24.64C128.68 23.49 126.16 24.36 125.33 26.49L94.03 107.39C92.95 110.17 89.63 111.33 87.05 109.82L2.37998 59.99C-0.660016 58.2 -0.820016 53.86 2.07998 51.84L72.82 2.70004C76.03 0.470036 80.42 2.77004 80.42 6.68004V63.69C80.42 65.31 78.69 66.32 77.29 65.52L65.02 58.51C64.38 58.14 63.98 57.46 63.98 56.72V30.93C63.98 30.06 63 29.55 62.29 30.05L28.81 53.3C27.66 54.1 27.73 55.83 28.94 56.54L79.89 86.53C81.85 87.68 84.38 86.8 85.2 84.68L116.5 3.77004C117.58 0.990036 120.89 -0.169964 123.47 1.34004L208.14 51.17C211.18 52.96 211.35 57.3 208.45 59.32Z" fill="#285BEB"/>
</svg>
